<?xml version="1.0" encoding="UTF-8"?>
<svg id="Capa_1" data-name="Capa 1" xmlns="http://www.w3.org/2000/svg" viewBox="0 0 175.68 175.44">
  <defs>
    <style>
      .cls-1 {
        fill: #d07663;
      }

      .cls-2 {
        fill: #d07763;
      }

      .cls-3 {
        fill: #fffffe;
      }
    </style>
  </defs>
  <path class="cls-3" d="M175.68,0v175.44H0V0h175.68ZM81.01,20.13c-9.19.96-17.07,7.8-20.12,16.43-.29.82-.5,1.88-.73,2.74,9.92-1.27,19.14-9.21,20.85-19.17ZM146.35,29.81c-9.78-7.95-23.74-8.05-33.43.06-1.38,1.15-3.86,3.46-3.59,5.41.06.44.84,2.14,1.21,2.27,3.1,1.02,4.91-2.43,6.84-4,8.96-7.29,24.72-4.49,29.79,6.04.05.11.98.84.46,1.38-.25.26-3.15-.62-3.74-.7-3.85-.5-10.49-.58-14.13.68-1.22.42-2.45.9-2.69,2.35-.72,4.25,3.21,3.62,6.04,3.16,4.59-.75,5.44-1.6,10.49-.62,25.8,5.02,32.05,39.43,8.98,51.97-2.59,1.41-5.84,2.77-8.79,2.83.68-2.39,1.76-4.71,2.33-7.13.75-3.17,1.73-9.71.91-12.76-.57-2.13-2.12-2.21-4.03-1.67-.08.38-.84,1.05-.88,1.14-.8,2.19-.53,6.95-1.04,9.7-.14.74-.95,4.34-1.37,4.64-.52.37-2.82-.81-3.41-1.12-10.14-5.38-15.26-17.75-12.3-28.98.52-1.96,3.4-7.19,1.74-8.81-.3-.3-2.14-.84-2.63-.72-.11.03-1.51.67-1.56.73-.22.23-1.19,2.15-1.38,2.58-6.4,14.79-.68,32.65,13.49,40.24.7.37,3.23,1.08,3.54,1.7.24.47-1.01,2.86-1.33,3.42-5.09,8.79-15.02,15.76-25.11,17.6-5.43.99-9.82.1-15.17-.76-.35-.23-.28-.76-.1-1.08,2.04-2.47,3.59-5.27,4.59-8.34,1.76-5.42,3-19.7-.89-24.14-1.54-1.76-4.06-.17-4.55,1.7.61,4.65,1.73,8.88,1.43,13.64-.7,11.26-8.1,19.33-18.84,21.91-.97.23-6.58,1.2-7.06.88-.39-.26-.14-1.04.03-1.38,1.01-2.06,3.11-4.3,4.28-6.37,2.8-5,5.22-14.26,5.53-20.06.15-2.81-.52-5.65-.21-8.47,1.65-.64,3.44-1.98,4.81-3.15,12.67-10.78,16.57-26.29,8.81-41.52-.7-.48-.77-1.42-1.49-1.94-2.45-1.76-5.61,0-4.59,3.17.51,1.57,1.85,2.98,2.5,4.69.74,1.97,1.53,5.1,1.68,7.19.06.92.15,5.11-.05,5.73-.36,1.1-1.67-.22-2.11-.68-5.02-5.32-6.94-13.24-4.45-20.26.43-1.22,1.69-2.83,2.02-3.78.35-1.01.79-3.11-.15-3.9-1.66-1.4-3.68-.69-4.86.92-1.93,2.61-3.63,8.93-3.83,12.16-.52,8.4,2.81,13.84,8.45,19.29.45.43,2.6,2.25,2.69,2.4.33.55.1,1.68-.1,2.29-.96,2.89-6.95,10.14-9.75,11.35-1.78.77-1.06-.53-1.31-1.52-1.17-4.78-6.78-16.36-10.53-19.43-2.23-1.83-5-1.08-5.05,1.94-.04,2.19,2.67,3.92,3.83,5.56,11.03,15.6,10.4,40.3-3.03,54.19-2.93,3.03-4.75,2.27-8.36,3.37-2.09.64-6.39,2.72-8.07,4.09-.47.38-1.79,2.11-2.22,2.18-18.6-.3-31.72-15.74-27.9-34.39,2.25-10.96,12.13-19.51,23.13-20.97,1.83-.24,6.07.11,7.36-.97.16-.13.89-2,.9-2.3.03-1.05-1.01-2.53-2.07-2.74-7.8-1.5-18.98,4.05-24.8,8.97-2.81,2.38-4.87,5.17-6.83,8.27-.67.74-1.61-.34-2.03-.9-5.45-7.4-6.09-18.48-.72-26,2.07-2.9,2.87-1.15,5.14-.18,11.06,4.71,25.12,4.3,34.72-3.4,2.98-2.39,8.52-9.24,8.01-13.2-.2-1.53-1.96-2.35-3.41-2.09-1.75.32-1.76,2.34-2.31,3.4-5.26,10.14-16.78,14.24-27.84,12.35-1.06-.18-7.16-1.93-7.49-2.57-.59-1.15.22-.84.51-1.04,2.33-1.64,5.24-3.03,8.14-3.49,2.38-.37,7.83.38,8.01-3.03.04-.76-.47-2.41-1.16-2.74-1.73-.81-8.36.55-8.68.23.54-7.58,7.37-12.98,14.53-14.12,1.31-.21,2.77.47,3.66-.9,1.54-2.35.09-4.3-2.51-4.62-8.93-1.07-19.36,8.24-21.12,16.7-.25,1.22-.16,4.58-.42,5.09-.14.28-3.74,2.01-4.47,2.48C2.91,58.75-1.02,75.47,5.9,88.17c1.45,2.67,3.48,4.95,5.56,7.15.11.37.07.75.03,1.13-.17,1.53-1.03,3.7-1.18,5.29-1.47,15.24,8.69,30.52,23.19,35.05.96.3,6,1.23,6.18,1.49.46.67-1.23,4.03-1.51,4.99-2.07,7.3-.33,15.19,4.6,20.91.92,1.07,3.83,3.94,5.13,4.2.63.13,1.65.23,2.25.06.17-.05,1.58-1.45,1.6-1.56.62-2.78-3.69-5.08-5.26-7.15-9.38-12.39.88-26.56,14.32-28.57,8.11-1.22,14.72.08,22.8-3.33,2.22-.94,5.73-3.56,8.01-3.14.87.16,2.11.85,3,1.07,12.7,3.16,26.9.31,36.78-8.08,3.62-3.08,6.28-6.96,9.1-10.73,31.14-1.29,43.81-41.13,18.7-60.2-.97-.74-3.11-1.6-3.77-2.65-.82-1.31-1.23-3.62-1.88-5.07-1.41-3.14-4.54-7.04-7.21-9.21ZM96.5,29.34c-.99-.6-7.23-3.8-7.82-3.21.84,5.61,3.78,10.89,7.66,14.99,2.98,3.14,9.11,7.33,13.13,8.2.34.07.68.08,1.02.06.18-.18-.83-4.02-1.03-4.6-2.05-5.94-7.61-12.2-12.95-15.44ZM53.84,42.81c2.89-3.8,3.5-8.83,2.98-13.46-.17-1.49-1.09-.49-1.82.13-3.34,2.81-4.91,7.34-4.93,11.63,0,.51.26,3.8.37,3.97.6.9,2.99-1.72,3.39-2.26ZM122.44,51.01c.19-.16,1.72-3.93,1.89-4.46,1.36-4.22,1.73-10.2-.29-14.19-3.05,3.57-4.03,8.92-3.71,13.53.04.63.77,4.95.98,5.13.1.08,1.02.08,1.14-.01ZM126.79,34.27c-.76.83,4.02,3.23,4.6,3.43,2.37.84,7.19,1.06,9.47-.02,1.54-.73.4-1.79-.58-2.4-1.58-.99-6.03-2.43-7.83-2.36-1.63.06-3.97,1.19-5.67,1.36ZM46.97,33.55c-.63-.06-1.22.44-1.68.83-4.01,3.45-6.14,10.35-5.76,15.59.04.57.44,3.32.87,3.45.87.27,3.52-2.85,4.03-3.61,3.12-4.62,3.65-10.91,2.54-16.27ZM40.03,35.71c-4.96-.07-10.21,2.9-11.5,7.91,4.65.19,10.83-2.93,11.5-7.91ZM78.13,36.19c-7.64.12-15.02,5.8-16.77,13.18,7.77-.37,14.72-5.76,16.77-13.18ZM116.24,60.63c1.48-6.61,2.02-13.88-.71-20.26-.86-2.01-1.16-2.1-1.84.09-1.36,4.38-1.58,11.65-.09,15.98.3.87.98,1.91,1.28,2.79.4,1.14-.38,1.62,1.36,1.39ZM142.6,48.18c-2.76-.14-6.01.42-8.46,1.72-1.63.86-3.7,2.73-4.41,4.46-.51,1.24-.42,1.56,1.01,1.51,5.1-.18,10.01-2.82,11.86-7.68ZM76.3,52.4c-.21-.33-.19-.76-.46-1.11-.42-.55-2.08-2.46-2.46-1.28-1.11,5.62-1.36,11.51.69,16.95.58,1.53,1.87,3.94,2.87,5.22.18.23,1.16,1.34,1.42,1.15,2.63-6.42,1.75-14.52-1.61-20.55-.15-.27-.4-.29-.46-.39ZM148.6,56.92c.34-2.04-.25-4.93,0-7.07-7.5,2.65-12.4,11.85-12.48,19.53-.01,1.3-.04,2.45,1.52,2.03,1.53-1.26,3.44-2.43,4.84-3.83,1.64-1.64,5.76-8.52,6.12-10.65ZM115.52,77.41v-4.43c0-4.83-5.3-14.5-8.63-18.14-.57-.62-3.97-3.95-4.55-3.55-.16.52-.23.99-.25,1.55-.21,5.75,3.88,13.72,7.1,18.32,1.61,2.31,3.75,5.11,6.33,6.25ZM70.23,51.77c-4.88-.37-10.56,1.67-13.81,5.36-.9,1.03-2.72,3.05-.46,3.26,3.9.36,8.8-1.71,11.67-4.32.6-.54,3.35-3.53,2.59-4.31ZM37.33,53.5c-.12-.1-2.58-.74-2.93-.78-2.14-.23-5.12.08-7.18.73-.96.31-3.52,1.76-3.27,2.96,3.38,1.25,6.68,1.43,10.13.31.87-.28,4.74-1.98,3.25-3.22ZM156.11,60.55c.72.7,2.85,2.59,2.77.48-.11-2.95-2.05-6.83-5.25-7.35-.24,2.58.64,5.07,2.48,6.87ZM133.74,60.16c-5.54,2.11-8.27,8.75-8.15,14.38.73.71,3.78-2.63,4.31-3.24,2.68-3.16,4.07-6.97,3.84-11.14ZM15.34,63.51c-2.91.92-4.67,6-4.3,8.74.09.63.7,1.26.47,2.05.34.42,2.05-1.65,2.25-1.94,1.85-2.59,2.13-5.76,1.58-8.85ZM54.56,66.01c-1.65-.81-4.02-1.64-5.82-1.98-.75-.14-.02.65.04.92,2.11,8.73,9.03,17.12,17.56,20.35.38.14,3.04.86,3.17.74-.98-6.22-4.99-12.47-9.78-16.52-1.24-1.05-3.81-2.85-5.17-3.51ZM148.57,76.91c2.06-4.01,3.31-8.68,1.1-12.92-2.93,1.86-3.84,6.95-3.18,10.13.13.63,1.02,3.68,2.08,2.79ZM155.71,65.99c-.72-.5-1.86-.88-2.08.29-.18.98-.09,3.92,0,5.02.25,3.2,2.04,7.36,4.08,9.82.36.43,3.3,3.29,3.83,2.76,1.03-6.14-.26-11.68-4.33-16.35-.26-.3-1.29-1.4-1.5-1.55ZM22.77,66.63c-.88-.04-2.04.86-2.75,1.45-3.6,2.97-6.12,8.36-6.13,13.04,0,.22.18,1.98.25,2.05.47.46,1.04-.41,1.14-.46,3.82-1.92,7.48-7.7,7.48-12.12v-3.95ZM36.38,66.94c-2.1.15-6.25,1.52-7.62,3.17-.59.72-1.27,1.76.12,2.02,2.28.43,7.27-1.39,8.99-2.98,1.97-1.83.59-2.36-1.49-2.21ZM84.52,75.18c1.13-1.87,2.34-8.48-1.23-6.15-1.71,1.11-3.18,4.62-3.25,6.59-.03.98.26,1.87.62,2.76.37,0,1.1-.49,1.43-.72.52-.36,2.12-1.97,2.43-2.48ZM109.19,75.36c-1.36-1.08-5.22-2.93-6.94-3.74-.46-.21-3.36-1.56-3.51-1.4,0,1.54.39,3.06.89,4.5,2.3,6.71,8.04,13.22,14.29,16.62,2.06,1.12,4.36,1.98,6.63,2.6-.6-7.54-5.36-12.52-10.53-17.4-.26-.25-.34-.8-.83-1.19ZM134.8,78.27c-.77-.98-1.73-2.18-2.98-2.53-1.17,4.83.27,12.59,5.51,14.38.75-4.12.09-8.52-2.53-11.85ZM46.02,81.25h-6.59c-1.18,0-7.09,2.87-8.32,3.61-3.08,1.86-7.74,6.19-9.11,9.64-.46,1.17-.09,1.39,1.13,1.39,1.79.01,5.51-.65,7.32-1.09,6.25-1.53,13.45-7.38,15.57-13.55ZM95.63,81.97c-5.68.93-11.07,4.72-12.94,10.3,5.85-.3,11.59-4.5,12.94-10.3ZM56.46,84.95c-1.47-1.1-2.96-2.53-4.93-2.5.36,1.51.24,3.09.54,4.61,1.07,5.37,5.13,12.05,9.04,15.88,2.18,2.13,5.11,4.01,7.91,5.15-.37-9.17-5.33-17.72-12.56-23.14ZM155.79,83.17c-4.82,1.3-6.15,7.13-6.23,11.5,2.02-.3,3.92-2.11,4.84-3.91.2-.4,1.39-3.67,1.39-3.88v-3.71ZM103.06,87.72v4.43c0,2.65,2.3,8.25,3.87,10.51,1.67,2.41,4.47,5.23,7.16,6.39v-6.35c0-.82-2.96-7.09-3.64-8.1-.53-.8-6.36-7.95-7.39-6.88ZM46.36,91.19c-.16-.19-.02-.43-.34-.36-.56,1.12-1.38,2.05-2.01,3.14-5.07,8.76-6.25,24.73-.91,33.69,1.49,2.49,1.6,1.36,2.77-.67,4.71-8.2,6.34-19.18,3.68-28.3-.47-1.62-2.23-6.38-3.18-7.5ZM91.94,98.66c.42-.9,2.01-5.25,1.53-5.9-6.8,2.19-11.81,8.23-12.7,15.34,3.05-.42,6.12-2.6,8.14-4.92.85-.98,2.53-3.43,3.03-4.52ZM34.99,96.35c-.3-.22-1.56,1.16-1.8,1.43-4.89,5.52-6.94,14.44-5.32,21.63.11.47,1.2,3.9,1.38,4.02.44.31,1.7-1.09,2.01-1.45,2.92-3.51,5.13-8.96,5.43-13.51.27-4.14-.34-8.22-1.69-12.11ZM125.94,100.29c1.92-1.95-.22-2.71-2.17-2.96-2.14-.28-5.4.25-6.81,2.01-1.93,2.41,2.81,3.13,4.45,3.01,1.51-.12,3.48-.99,4.54-2.06ZM22.45,100.27c-.38-.37-1.3-.89-1.72-.32-.09.13-.77,2.67-.82,3.01-.58,3.51-.09,6.42,1.38,9.62.35.76,1.14,2.5,2.04,2.25.44-.12,1.39-4.88,1.37-5.65-.06-1.79-1.04-7.72-2.25-8.9ZM132.06,102.34c-6.63.7-12.19,4.59-16.16,9.84l-2.29,4.54c2.15.03,4.31-.47,6.28-1.27,4.47-1.82,9.76-7.06,11.67-11.38.1-.22.57-1.67.5-1.73ZM55.37,103.3c-.14.12-1.06,3.06-1.18,3.5-1.3,4.87-.92,12.24,2.27,16.38,1.5,1.94,2.15.38,2.72-1.32,1.5-4.44,1.28-11.03-.77-15.25-.29-.59-2.27-3.96-3.04-3.3ZM105.35,111.1c-1.35,1.39-2.06,2.06-2.26,4.09s-.29,5.72,2.6,3.79c2.11-1.4,3.4-4.94,3.11-7.4-.43-3.55-1.75-2.22-3.44-.48ZM89.16,109.53c-4.91.39-9.71,3.76-11.77,8.19-.08.18-.35.19-.43.39-.09.22-.32,1.43-.26,1.48,3.49-.2,7.31-2.13,9.57-4.75,1.3-1.51,2.56-3.33,2.89-5.32Z"/>
  <path class="cls-1" d="M146.35,29.81c2.66,2.17,5.8,6.07,7.21,9.21.65,1.45,1.06,3.76,1.88,5.07.66,1.06,2.79,1.91,3.77,2.65,25.1,19.07,12.44,58.91-18.7,60.2-2.82,3.78-5.48,7.66-9.1,10.73-9.88,8.39-24.08,11.24-36.78,8.08-.89-.22-2.13-.91-3-1.07-2.28-.41-5.78,2.21-8.01,3.14-8.08,3.41-14.68,2.11-22.8,3.33-13.44,2.01-23.69,16.19-14.32,28.57,1.57,2.07,5.88,4.37,5.26,7.15-.02.11-1.43,1.51-1.6,1.56-.6.18-1.62.07-2.25-.06-1.3-.26-4.21-3.14-5.13-4.2-4.93-5.72-6.67-13.6-4.6-20.91.27-.96,1.96-4.32,1.51-4.99-.18-.26-5.22-1.19-6.18-1.49-14.51-4.53-24.67-19.81-23.19-35.05.15-1.59,1.02-3.77,1.18-5.29.04-.38.08-.76-.03-1.13-2.08-2.2-4.1-4.48-5.56-7.15-6.92-12.7-3-29.42,9.17-37.27.73-.47,4.33-2.2,4.47-2.48.26-.52.17-3.87.42-5.09,1.76-8.46,12.19-17.76,21.12-16.7,2.6.31,4.05,2.26,2.51,4.62-.89,1.36-2.35.69-3.66.9-7.16,1.14-13.99,6.54-14.53,14.12.32.32,6.95-1.04,8.68-.23.69.32,1.2,1.97,1.16,2.74-.19,3.41-5.63,2.66-8.01,3.03-2.91.46-5.82,1.85-8.14,3.49-.29.2-1.1-.11-.51,1.04.33.64,6.44,2.39,7.49,2.57,11.06,1.89,22.58-2.21,27.84-12.35.55-1.06.55-3.08,2.31-3.4,1.45-.26,3.22.55,3.41,2.09.51,3.96-5.02,10.81-8.01,13.2-9.61,7.7-23.67,8.11-34.72,3.4-2.27-.97-3.07-2.72-5.14.18-5.37,7.52-4.74,18.6.72,26,.41.56,1.35,1.64,2.03.9,1.96-3.1,4.01-5.89,6.83-8.27,5.82-4.92,17-10.47,24.8-8.97,1.06.2,2.1,1.68,2.07,2.74,0,.3-.75,2.17-.9,2.3-1.29,1.07-5.53.72-7.36.97-10.99,1.46-20.88,10.01-23.13,20.97-3.82,18.65,9.3,34.09,27.9,34.39.42-.07,1.75-1.8,2.22-2.18,1.68-1.36,5.98-3.45,8.07-4.09,3.61-1.1,5.43-.35,8.36-3.37,13.42-13.89,14.06-38.59,3.03-54.19-1.16-1.64-3.87-3.37-3.83-5.56.05-3.02,2.82-3.77,5.05-1.94,3.74,3.08,9.36,14.66,10.53,19.43.24.99-.48,2.29,1.31,1.52,2.79-1.21,8.79-8.46,9.75-11.35.2-.61.44-1.74.1-2.29-.09-.15-2.25-1.97-2.69-2.4-5.64-5.45-8.97-10.89-8.45-19.29.2-3.24,1.9-9.55,3.83-12.16,1.18-1.6,3.21-2.31,4.86-.92.94.79.5,2.88.15,3.9-.33.95-1.59,2.56-2.02,3.78-2.49,7.02-.57,14.94,4.45,20.26.44.47,1.76,1.78,2.11.68.2-.61.11-4.8.05-5.73-.15-2.08-.94-5.22-1.68-7.19-.64-1.71-1.99-3.12-2.5-4.69-1.03-3.18,2.14-4.94,4.59-3.17.72.52.79,1.46,1.49,1.94,7.76,15.23,3.86,30.74-8.81,41.52-1.37,1.17-3.17,2.51-4.81,3.15-.32,2.83.36,5.66.21,8.47-.31,5.8-2.73,15.06-5.53,20.06-1.16,2.07-3.26,4.31-4.28,6.37-.17.34-.42,1.13-.03,1.38.48.32,6.09-.64,7.06-.88,10.74-2.58,18.14-10.64,18.84-21.91.29-4.75-.83-8.99-1.43-13.64.5-1.88,3.02-3.46,4.55-1.7,3.89,4.44,2.65,18.72.89,24.14-1,3.08-2.55,5.87-4.59,8.34-.18.33-.26.85.1,1.08,5.34.86,9.74,1.75,15.17.76,10.08-1.84,20.02-8.81,25.11-17.6.33-.56,1.57-2.95,1.33-3.42-.31-.62-2.84-1.33-3.54-1.7-14.17-7.59-19.89-25.45-13.49-40.24.18-.43,1.16-2.34,1.38-2.58.06-.06,1.45-.7,1.56-.73.49-.12,2.33.42,2.63.72,1.65,1.62-1.23,6.85-1.74,8.81-2.96,11.23,2.16,23.6,12.3,28.98.59.31,2.89,1.49,3.41,1.12.42-.29,1.23-3.9,1.37-4.64.51-2.75.24-7.51,1.04-9.7.04-.1.8-.76.88-1.14,1.91-.54,3.46-.46,4.03,1.67.82,3.05-.17,9.59-.91,12.76-.57,2.43-1.65,4.74-2.33,7.13,2.94-.07,6.19-1.42,8.79-2.83,23.06-12.54,16.81-46.96-8.98-51.97-5.05-.98-5.91-.13-10.49.62-2.83.46-6.76,1.09-6.04-3.16.25-1.45,1.47-1.92,2.69-2.35,3.63-1.26,10.28-1.19,14.13-.68.59.08,3.49.96,3.74.7.51-.54-.41-1.27-.46-1.38-5.06-10.53-20.82-13.33-29.79-6.04-1.92,1.56-3.74,5.02-6.84,4-.37-.12-1.15-1.82-1.21-2.27-.28-1.95,2.21-4.26,3.59-5.41,9.68-8.11,23.64-8.01,33.43-.06Z"/>
  <path class="cls-1" d="M46.36,91.19c.95,1.12,2.71,5.88,3.18,7.5,2.66,9.12,1.03,20.1-3.68,28.3-1.17,2.03-1.28,3.16-2.77.67-5.35-8.96-4.16-24.93.91-33.69.63-1.09,1.46-2.02,2.01-3.14.33-.07.19.17.34.36Z"/>
  <path class="cls-2" d="M96.5,29.34c5.34,3.24,10.9,9.5,12.95,15.44.2.58,1.22,4.41,1.03,4.6-.34.02-.68.02-1.02-.06-4.02-.87-10.15-5.07-13.13-8.2-3.89-4.1-6.83-9.37-7.66-14.99.59-.59,6.83,2.61,7.82,3.21Z"/>
  <path class="cls-1" d="M109.19,75.36c.49.39.57.94.83,1.19,5.17,4.88,9.93,9.86,10.53,17.4-2.26-.62-4.57-1.47-6.63-2.6-6.25-3.41-12-9.92-14.29-16.62-.5-1.45-.89-2.96-.89-4.5.15-.16,3.05,1.19,3.51,1.4,1.71.8,5.58,2.66,6.94,3.74Z"/>
  <path class="cls-1" d="M56.46,84.95c7.23,5.43,12.19,13.97,12.56,23.14-2.8-1.13-5.73-3.02-7.91-5.15-3.91-3.83-7.97-10.51-9.04-15.88-.3-1.52-.18-3.1-.54-4.61,1.97-.03,3.46,1.4,4.93,2.5Z"/>
  <path class="cls-2" d="M54.56,66.01c1.36.67,3.93,2.46,5.17,3.51,4.79,4.05,8.8,10.3,9.78,16.52-.13.12-2.79-.6-3.17-.74-8.53-3.23-15.45-11.62-17.56-20.35-.07-.27-.79-1.06-.04-.92,1.8.33,4.17,1.16,5.82,1.98Z"/>
  <path class="cls-1" d="M46.02,81.25c-2.12,6.17-9.32,12.02-15.57,13.55-1.81.44-5.53,1.1-7.32,1.09-1.22,0-1.6-.22-1.13-1.39,1.37-3.44,6.03-7.78,9.11-9.64,1.23-.74,7.14-3.61,8.32-3.61h6.59Z"/>
  <path class="cls-1" d="M81.01,20.13c-1.7,9.96-10.93,17.9-20.85,19.17.23-.86.44-1.92.73-2.74,3.04-8.63,10.92-15.47,20.12-16.43Z"/>
  <path class="cls-1" d="M34.99,96.35c1.35,3.9,1.96,7.97,1.69,12.11-.3,4.55-2.51,10.01-5.43,13.51-.31.37-1.56,1.77-2.01,1.45-.17-.12-1.27-3.55-1.38-4.02-1.62-7.19.43-16.11,5.32-21.63.24-.27,1.5-1.66,1.8-1.43Z"/>
  <path class="cls-1" d="M115.52,77.41c-2.58-1.14-4.71-3.95-6.33-6.25-3.22-4.6-7.31-12.58-7.1-18.32.02-.55.09-1.02.25-1.55.57-.41,3.98,2.93,4.55,3.55,3.33,3.64,8.63,13.32,8.63,18.14v4.43Z"/>
  <path class="cls-2" d="M148.6,56.92c-.36,2.14-4.49,9.01-6.12,10.65-1.4,1.41-3.3,2.58-4.84,3.83-1.56.42-1.53-.73-1.52-2.03.08-7.68,4.97-16.88,12.48-19.53-.25,2.14.34,5.04,0,7.07Z"/>
  <path class="cls-1" d="M76.3,52.4c.06.09.3.12.46.39,3.36,6.03,4.24,14.13,1.61,20.55-.26.19-1.24-.92-1.42-1.15-1-1.28-2.3-3.69-2.87-5.22-2.05-5.45-1.8-11.33-.69-16.95.38-1.18,2.04.73,2.46,1.28.26.35.25.78.46,1.11Z"/>
  <path class="cls-1" d="M103.06,87.72c1.03-1.07,6.85,6.08,7.39,6.88.68,1.01,3.64,7.29,3.64,8.1v6.35c-2.69-1.16-5.48-3.97-7.16-6.39-1.57-2.26-3.87-7.86-3.87-10.51v-4.43Z"/>
  <path class="cls-2" d="M132.06,102.34c.07.06-.4,1.5-.5,1.73-1.91,4.32-7.2,9.57-11.67,11.38-1.97.8-4.13,1.3-6.28,1.27l2.29-4.54c3.97-5.25,9.53-9.14,16.16-9.84Z"/>
  <path class="cls-2" d="M78.13,36.19c-2.05,7.42-9,12.81-16.77,13.18,1.75-7.38,9.14-13.06,16.77-13.18Z"/>
  <path class="cls-1" d="M55.37,103.3c.77-.66,2.75,2.71,3.04,3.3,2.04,4.22,2.27,10.81.77,15.25-.57,1.7-1.22,3.26-2.72,1.32-3.19-4.14-3.57-11.5-2.27-16.38.12-.44,1.04-3.38,1.18-3.5Z"/>
  <path class="cls-1" d="M46.97,33.55c1.11,5.36.58,11.65-2.54,16.27-.51.76-3.16,3.88-4.03,3.61-.44-.14-.83-2.89-.87-3.45-.39-5.24,1.75-12.14,5.76-15.59.46-.4,1.05-.89,1.68-.83Z"/>
  <path class="cls-1" d="M155.71,65.99c.21.15,1.24,1.25,1.5,1.55,4.07,4.67,5.36,10.21,4.33,16.35-.53.53-3.47-2.33-3.83-2.76-2.04-2.46-3.83-6.62-4.08-9.82-.09-1.11-.18-4.04,0-5.02.22-1.17,1.35-.79,2.08-.29Z"/>
  <path class="cls-2" d="M91.94,98.66c-.5,1.08-2.17,3.54-3.03,4.52-2.02,2.31-5.09,4.5-8.14,4.92.89-7.11,5.9-13.15,12.7-15.34.48.65-1.11,5-1.53,5.9Z"/>
  <path class="cls-2" d="M22.77,66.63v3.95c0,4.42-3.67,10.2-7.48,12.12-.1.05-.67.93-1.14.46-.07-.07-.25-1.83-.25-2.05.01-4.68,2.53-10.07,6.13-13.04.71-.58,1.87-1.49,2.75-1.45Z"/>
  <path class="cls-1" d="M116.24,60.63c-1.74.23-.96-.25-1.36-1.39-.3-.88-.98-1.91-1.28-2.79-1.49-4.34-1.27-11.6.09-15.98.68-2.19.98-2.1,1.84-.09,2.73,6.37,2.19,13.64.71,20.26Z"/>
  <path class="cls-2" d="M70.23,51.77c.76.78-1.99,3.77-2.59,4.31-2.87,2.6-7.78,4.68-11.67,4.32-2.27-.21-.45-2.24.46-3.26,3.25-3.7,8.93-5.74,13.81-5.36Z"/>
  <path class="cls-1" d="M53.84,42.81c-.41.54-2.8,3.15-3.39,2.26-.11-.17-.37-3.46-.37-3.97.02-4.29,1.58-8.82,4.93-11.63.73-.61,1.65-1.62,1.82-.13.52,4.63-.09,9.67-2.98,13.46Z"/>
  <path class="cls-1" d="M122.44,51.01c-.11.1-1.04.1-1.14.01-.21-.18-.94-4.5-.98-5.13-.32-4.61.66-9.97,3.71-13.53,2.02,3.99,1.65,9.97.29,14.19-.17.52-1.7,4.3-1.89,4.46Z"/>
  <path class="cls-2" d="M133.74,60.16c.23,4.16-1.16,7.98-3.84,11.14-.52.62-3.58,3.95-4.31,3.24-.13-5.63,2.61-12.27,8.15-14.38Z"/>
  <path class="cls-2" d="M95.63,81.97c-1.35,5.8-7.09,10.01-12.94,10.3,1.87-5.58,7.26-9.38,12.94-10.3Z"/>
  <path class="cls-1" d="M134.8,78.27c2.62,3.33,3.28,7.73,2.53,11.85-5.23-1.79-6.68-9.55-5.51-14.38,1.25.36,2.21,1.56,2.98,2.53Z"/>
  <path class="cls-2" d="M126.79,34.27c1.7-.16,4.04-1.3,5.67-1.36,1.8-.07,6.24,1.37,7.83,2.36.98.61,2.12,1.67.58,2.4-2.28,1.09-7.1.86-9.47.02-.57-.2-5.36-2.6-4.6-3.43Z"/>
  <path class="cls-1" d="M89.16,109.53c-.33,1.98-1.59,3.81-2.89,5.32-2.26,2.62-6.08,4.54-9.57,4.75-.05-.05.17-1.26.26-1.48.08-.2.35-.21.43-.39,2.06-4.44,6.86-7.8,11.77-8.19Z"/>
  <path class="cls-1" d="M142.6,48.18c-1.85,4.86-6.76,7.51-11.86,7.68-1.44.05-1.53-.26-1.01-1.51.71-1.73,2.78-3.6,4.41-4.46,2.45-1.3,5.7-1.86,8.46-1.72Z"/>
  <path class="cls-2" d="M22.45,100.27c1.21,1.17,2.19,7.1,2.25,8.9.03.77-.92,5.53-1.37,5.65-.91.25-1.69-1.49-2.04-2.25-1.48-3.19-1.97-6.11-1.38-9.62.06-.34.73-2.88.82-3.01.42-.57,1.33-.05,1.72.32Z"/>
  <path class="cls-2" d="M37.33,53.5c1.49,1.24-2.39,2.94-3.25,3.22-3.44,1.13-6.74.94-10.13-.31-.26-1.2,2.3-2.65,3.27-2.96,2.06-.66,5.03-.97,7.18-.73.35.04,2.82.68,2.93.78Z"/>
  <path class="cls-2" d="M40.03,35.71c-.67,4.98-6.85,8.1-11.5,7.91,1.3-5.01,6.55-7.98,11.5-7.91Z"/>
  <path class="cls-1" d="M148.57,76.91c-1.05.89-1.95-2.16-2.08-2.79-.67-3.18.25-8.26,3.18-10.13,2.22,4.24.96,8.91-1.1,12.92Z"/>
  <path class="cls-2" d="M105.35,111.1c1.68-1.74,3.01-3.07,3.44.48.3,2.45-1,5.99-3.11,7.4-2.89,1.93-2.79-1.85-2.6-3.79s.91-2.7,2.26-4.09Z"/>
  <path class="cls-2" d="M155.79,83.17v3.71c0,.21-1.19,3.48-1.39,3.88-.92,1.8-2.81,3.61-4.84,3.91.08-4.37,1.41-10.2,6.23-11.5Z"/>
  <path class="cls-1" d="M125.94,100.29c-1.05,1.07-3.02,1.94-4.54,2.06-1.64.13-6.37-.59-4.45-3.01,1.41-1.76,4.68-2.3,6.81-2.01,1.95.26,4.09,1.02,2.17,2.96Z"/>
  <path class="cls-1" d="M84.52,75.18c-.31.51-1.91,2.12-2.43,2.48-.33.23-1.07.72-1.43.72-.36-.89-.65-1.78-.62-2.76.06-1.97,1.54-5.48,3.25-6.59,3.57-2.33,2.37,4.28,1.23,6.15Z"/>
  <path class="cls-2" d="M36.38,66.94c2.08-.15,3.46.38,1.49,2.21-1.72,1.59-6.71,3.42-8.99,2.98-1.39-.26-.71-1.31-.12-2.02,1.36-1.66,5.52-3.02,7.62-3.17Z"/>
  <path class="cls-2" d="M15.34,63.51c.55,3.09.27,6.25-1.58,8.85-.2.29-1.91,2.35-2.25,1.94.23-.79-.38-1.41-.47-2.05-.37-2.74,1.39-7.81,4.3-8.74Z"/>
  <path class="cls-2" d="M156.11,60.55c-1.84-1.8-2.72-4.29-2.48-6.87,3.2.51,5.14,4.39,5.25,7.35.08,2.11-2.06.22-2.77-.48Z"/>
</svg>